<?xml version="1.0" encoding="UTF-8"?><svg id="Layer_2" xmlns="http://www.w3.org/2000/svg" viewBox="0 0 2500 1096.23"><defs><style>.cls-1{fill:red;}</style></defs><g id="Layer_1-2"><path class="cls-1" d="M1250,0c-187.13,.03-361.31,95.52-461.97,253.27H0l78.44,78.44H747.1c-12.7,29.53-22.78,60.11-30.12,91.41H169.85l77.48,77.48h456.98c-1.5,15.8-2.31,31.66-2.44,47.53,.14,14.65,.88,29.29,2.19,43.88H338.74l77.5,77.5h299.75c6.95,31.25,16.63,61.83,28.91,91.39h-237.26l78.42,78.46h200.35c100.11,159.6,275.16,256.6,463.56,256.87,188.41-.26,363.48-97.26,463.6-256.87h200.31l78.46-78.46h-237.26c12.29-29.56,21.96-60.14,28.91-91.39h299.75l77.48-77.48h-365.33c1.32-14.6,2.05-29.24,2.19-43.9-.12-15.87-.92-31.73-2.42-47.53h456.96l77.48-77.48h-547.14c-7.33-31.29-17.4-61.88-30.09-91.41h668.63l78.46-78.44h-788.03C1611.31,95.52,1437.13,.03,1250,0h0Zm0,74.31c261.68,0,473.82,212.14,473.82,473.82s-212.14,473.82-473.82,473.82c-261.68,.01-473.83-212.12-473.84-473.8v-.02c0-261.68,212.14-473.82,473.82-473.82,0,0,.01,0,.02,0h0Zm-376.93,351v245.61h51.21v-193.32l54.05,193.32h53.06l54.22-193.32v193.32h51.21v-245.61h-82.7l-48.98,167.55-49.55-167.55h-82.53Zm317.23,0v245.61h55.12v-245.61h-55.12Zm108.04,0v245.61h51.21v-160.16l110.1,160.16h55.33v-245.61h-51.21v164.03l-111.78-164.03h-53.65Zm273.45,0v245.61h55.14v-245.61h-55.14Z"/></g></svg>