<?xml version="1.0" encoding="UTF-8"?>
<svg xmlns="http://www.w3.org/2000/svg" xmlns:xlink="http://www.w3.org/1999/xlink" viewBox="0 0 50 50" width="50px" height="50px">
<g id="surface55617248">
<path style=" stroke:none;fill-rule:nonzero;fill:rgb(100%,100%,100%);fill-opacity:1;" d="M 34.230469 5.480469 C 28.253906 5.480469 23.382812 10.347656 23.382812 16.324219 C 23.382812 16.6875 23.472656 17.027344 23.503906 17.382812 C 16.109375 16.679688 9.558594 13.097656 5.117188 7.644531 C 4.910156 7.390625 4.589844 7.257812 4.265625 7.28125 C 3.9375 7.308594 3.644531 7.492188 3.476562 7.773438 C 2.542969 9.382812 2.007812 11.25 2.007812 13.230469 C 2.007812 15.648438 2.863281 17.839844 4.199219 19.644531 C 3.941406 19.53125 3.660156 19.460938 3.414062 19.320312 C 3.105469 19.148438 2.730469 19.15625 2.421875 19.332031 C 2.117188 19.511719 1.929688 19.839844 1.929688 20.195312 L 1.929688 20.320312 C 1.929688 24.015625 3.839844 27.214844 6.667969 29.171875 C 6.636719 29.167969 6.597656 29.171875 6.566406 29.164062 C 6.21875 29.097656 5.863281 29.21875 5.628906 29.484375 C 5.394531 29.746094 5.316406 30.113281 5.425781 30.449219 C 6.546875 33.933594 9.414062 36.5625 12.960938 37.519531 C 10.144531 39.203125 6.875 40.199219 3.351562 40.199219 C 2.589844 40.199219 1.847656 40.15625 1.121094 40.066406 C 0.65625 40.011719 0.214844 40.28125 0.0585938 40.722656 C -0.101562 41.164062 0.0664062 41.652344 0.460938 41.902344 C 4.972656 44.796875 10.339844 46.484375 16.09375 46.484375 C 25.429688 46.484375 32.738281 42.589844 37.648438 37.019531 C 42.5625 31.449219 45.117188 24.230469 45.117188 17.46875 C 45.117188 17.1875 45.109375 16.914062 45.097656 16.636719 C 46.929688 15.238281 48.550781 13.570312 49.832031 11.652344 C 50.082031 11.28125 50.054688 10.792969 49.765625 10.449219 C 49.480469 10.109375 49 10 48.59375 10.179688 C 48.078125 10.410156 47.484375 10.453125 46.949219 10.632812 C 47.652344 9.6875 48.257812 8.652344 48.628906 7.503906 C 48.753906 7.109375 48.621094 6.675781 48.296875 6.417969 C 47.972656 6.160156 47.519531 6.128906 47.164062 6.339844 C 45.460938 7.347656 43.574219 8.070312 41.585938 8.503906 C 39.644531 6.683594 37.097656 5.476562 34.234375 5.476562 Z M 34.230469 7.480469 C 36.785156 7.480469 39.078125 8.550781 40.6875 10.273438 C 40.925781 10.523438 41.273438 10.632812 41.613281 10.570312 C 42.914062 10.3125 44.15625 9.910156 45.363281 9.425781 C 44.664062 10.363281 43.832031 11.1875 42.828125 11.792969 C 42.425781 12.035156 42.246094 12.527344 42.398438 12.972656 C 42.550781 13.417969 42.996094 13.695312 43.460938 13.640625 C 44.460938 13.519531 45.351562 13.117188 46.300781 12.859375 C 45.445312 13.789062 44.523438 14.648438 43.503906 15.382812 C 43.230469 15.582031 43.074219 15.902344 43.089844 16.238281 C 43.105469 16.644531 43.117188 17.058594 43.117188 17.46875 C 43.117188 23.722656 40.722656 30.511719 36.148438 35.695312 C 31.578125 40.878906 24.875 44.484375 16.09375 44.484375 C 12.113281 44.484375 8.339844 43.613281 4.941406 42.0625 C 9.160156 41.742188 13.054688 40.238281 16.195312 37.773438 C 16.527344 37.511719 16.660156 37.070312 16.527344 36.667969 C 16.394531 36.269531 16.019531 35.996094 15.597656 35.984375 C 12.304688 35.925781 9.542969 34.015625 8.066406 31.308594 C 8.125 31.308594 8.175781 31.324219 8.234375 31.324219 C 9.222656 31.324219 10.179688 31.191406 11.089844 30.941406 C 11.535156 30.816406 11.839844 30.40625 11.824219 29.941406 C 11.808594 29.480469 11.476562 29.089844 11.023438 29 C 7.464844 28.28125 4.808594 25.390625 4.1875 21.789062 C 5.195312 22.136719 6.242188 22.390625 7.359375 22.429688 C 7.804688 22.441406 8.203125 22.15625 8.339844 21.734375 C 8.476562 21.308594 8.316406 20.847656 7.945312 20.597656 C 5.570312 19.007812 4.007812 16.308594 4.007812 13.234375 C 4.007812 12.085938 4.289062 11.027344 4.683594 10.027344 C 9.683594 15.519531 16.679688 19.171875 24.589844 19.570312 C 24.902344 19.585938 25.207031 19.453125 25.410156 19.210938 C 25.609375 18.96875 25.6875 18.648438 25.613281 18.34375 C 25.464844 17.695312 25.382812 17.019531 25.382812 16.324219 C 25.382812 11.425781 29.332031 7.480469 34.230469 7.480469 Z M 34.230469 7.480469 "/>
</g>
</svg>
